<svg width="136" height="121" viewBox="0 0 136 121" fill="none" xmlns="http://www.w3.org/2000/svg">
<path d="M67.797 120.228C105.24 120.228 135.594 114.556 135.594 107.56C135.594 100.564 105.24 94.8921 67.797 94.8921C30.3537 94.8921 0 100.564 0 107.56C0 114.556 30.3537 120.228 67.797 120.228Z" fill="#F2F3F6"/>
<path fill-rule="evenodd" clip-rule="evenodd" d="M122.034 70.3441L98.109 40.8991C96.961 39.5131 95.283 38.6741 93.516 38.6741H42.076C40.31 38.6741 38.632 39.5131 37.484 40.8991L13.56 70.3441V85.7271H122.035V70.3441H122.034Z" fill="#B0B4C8"/>
<path fill-rule="evenodd" clip-rule="evenodd" d="M33.83 0.670044H101.763C102.824 0.670044 103.841 1.09147 104.591 1.84162C105.342 2.59176 105.763 3.60918 105.763 4.67004V98.014C105.763 99.0749 105.342 100.092 104.591 100.842C103.841 101.593 102.824 102.014 101.763 102.014H33.83C32.7691 102.014 31.7517 101.593 31.0016 100.842C30.2514 100.092 29.83 99.0749 29.83 98.014V4.67004C29.83 3.60918 30.2514 2.59176 31.0016 1.84162C31.7517 1.09147 32.7691 0.670044 33.83 0.670044V0.670044Z" fill="#E5E6ED"/>
<path fill-rule="evenodd" clip-rule="evenodd" d="M42.678 10.623H92.915C93.4454 10.623 93.9541 10.8338 94.3292 11.2088C94.7043 11.5839 94.915 12.0926 94.915 12.623V37.58C94.915 38.1105 94.7043 38.6192 94.3292 38.9943C93.9541 39.3693 93.4454 39.58 92.915 39.58H42.678C42.1476 39.58 41.6388 39.3693 41.2638 38.9943C40.8887 38.6192 40.678 38.1105 40.678 37.58V12.623C40.678 12.0926 40.8887 11.5839 41.2638 11.2088C41.6388 10.8338 42.1476 10.623 42.678 10.623ZM42.94 50.437H92.653C93.2529 50.437 93.8283 50.6754 94.2525 51.0996C94.6767 51.5238 94.915 52.0991 94.915 52.699C94.915 53.299 94.6767 53.8743 94.2525 54.2985C93.8283 54.7227 93.2529 54.961 92.653 54.961H42.94C42.3401 54.961 41.7647 54.7227 41.3405 54.2985C40.9163 53.8743 40.678 53.299 40.678 52.699C40.678 52.0991 40.9163 51.5238 41.3405 51.0996C41.7647 50.6754 42.3401 50.437 42.94 50.437ZM42.94 62.2H92.653C93.253 62.2 93.8285 62.4384 94.2528 62.8627C94.6771 63.287 94.9155 63.8625 94.9155 64.4625C94.9155 65.0626 94.6771 65.6381 94.2528 66.0624C93.8285 66.4867 93.253 66.725 92.653 66.725H42.94C42.3399 66.725 41.7645 66.4867 41.3402 66.0624C40.9159 65.6381 40.6775 65.0626 40.6775 64.4625C40.6775 63.8625 40.9159 63.287 41.3402 62.8627C41.7645 62.4384 42.3399 62.2 42.94 62.2ZM121.813 105.702C121.038 108.773 118.316 111.062 115.078 111.062H20.515C17.277 111.062 14.555 108.772 13.781 105.702C13.6334 105.117 13.5588 104.516 13.559 103.912V70.3451H39.877C42.784 70.3451 45.127 72.793 45.127 75.765V75.805C45.127 78.776 47.497 81.175 50.404 81.175H85.189C88.096 81.175 90.466 78.754 90.466 75.782V75.77C90.466 72.798 92.809 70.3441 95.716 70.3441H122.034V103.913C122.034 104.53 121.957 105.129 121.813 105.702Z" fill="#CBCDDB"/>
</svg>
